<?xml version="1.0" encoding="UTF-8" standalone="no"?>
<!DOCTYPE svg PUBLIC "-//W3C//DTD SVG 1.1//EN" "http://www.w3.org/Graphics/SVG/1.1/DTD/svg11.dtd">
<svg width="100%" height="100%" viewBox="0 0 1800 1800" version="1.1" xmlns="http://www.w3.org/2000/svg" xmlns:xlink="http://www.w3.org/1999/xlink" xml:space="preserve" xmlns:serif="http://www.serif.com/" style="fill-rule:evenodd;clip-rule:evenodd;stroke-linejoin:round;stroke-miterlimit:2;">
    <g id="Gemini_Generated_Image_37q70237q70237q7.png" transform="matrix(2.265689,0,0,2.265689,-257.041596,-239.821748)">
        <path d="M544.498,237.016C518.112,242.953 519.049,245.17 504.471,252.302C501.24,253.882 507.196,241.698 508.759,235.516C509.871,231.118 503.71,237.054 485.389,245.253C409.28,279.314 351.612,286.664 347.926,434.511C346.256,501.494 344.45,501.424 345.154,507.2C343.322,509.613 337.094,514.313 337.226,511.565C339.657,460.888 342.784,458.003 338.496,457.984C326.99,457.931 326.352,459.055 317.275,451.871C316.717,451.429 282.589,449.98 268.906,410.348C260.877,387.093 262.131,341.85 291.644,316.67C297.451,311.715 298.867,312.277 300.388,302.482C305.418,270.102 315.516,266.878 318.633,265.883C320.593,265.257 340.284,182.47 437.507,152.523C551.394,117.442 669.605,163.564 703.796,261.373C706.574,269.317 711.57,265.184 715.236,272.64C721.434,285.245 724.841,305.587 725.334,308.528C726.298,314.282 761.237,330.221 760.087,385.491C758.942,440.512 715.065,450.12 708.516,451.555C704.656,452.4 704.063,459.116 688.534,458.155C678.994,457.564 683.989,462.899 684.415,472.502C686.838,527.103 691.144,526.308 697.301,537.616C701.422,545.185 734.296,605.564 697.323,645.342C685.485,658.078 692.794,660.924 686.762,696.547C682.17,723.671 677.891,733.647 665.521,757.514C664.607,759.276 657.977,755.022 657.397,754.65C677.767,734.753 683.165,670.19 683.804,662.552C685.035,647.823 672.672,680.264 631.797,675.093C623.698,672.828 623.641,673.127 616.578,675.7C602.515,680.821 552.548,690.381 529.813,633.431C528.248,624.772 531.169,624.663 528.766,593.522C530.121,590.365 530.167,590.567 531.372,587.45C553.102,531.273 636.419,526.389 657.189,593.676C659.415,600.888 662.254,586.259 662.402,585.497C669.477,575.402 668.352,557.225 671.118,565.712C672.661,570.444 672.507,570.317 674.745,574.563L672.114,581.253C656.339,624.829 616.88,630.604 618.853,645.5C619.473,650.186 629.884,644.267 630.717,643.793C637.303,642.51 637.45,643.9 637.17,644.336C635.257,647.313 625.556,650.881 624.469,651.281C617.977,652.333 615.054,654.771 620.465,658.599C629.29,667.951 660.373,643.394 643.294,658.331C635.883,664.813 621.809,665.005 632.622,668.038C661.378,676.102 742.556,629.924 690.057,538.828C673.12,509.44 680.879,507.098 676.288,418.515C673.096,356.912 660.187,292.346 575.931,261.173C571.57,260.08 550.352,252.926 538.571,257.921C533.497,260.072 536.922,255.887 539.883,250.741C545.374,241.196 552.308,236.648 544.498,237.016ZM545.529,229.964C546.868,229.897 558.959,229.289 562.295,229.893C564.966,230.377 546.974,248.659 551.594,249.116C593.087,253.214 614.719,275.101 617.316,272.288C657.649,228.602 680.163,274.26 674.424,294.478C672.152,302.481 678.547,297.021 686.479,299.565C700.086,303.928 681.403,292.034 685.597,278.522C687.532,272.286 686.3,272.211 681.045,261.749C674.871,249.459 655.403,223.543 651.568,223.135C626.161,220.435 597.546,179.25 512.497,178.967C429.58,178.691 395.918,221.122 373.429,223.065C367.352,223.589 336.315,269.108 338.264,275.567C343.48,292.856 326.186,303.579 337.547,299.633C344.496,297.22 351.806,300.36 351.164,297.549C341.618,255.757 379.167,240.813 405.318,269.652C411.414,276.374 411.797,267.024 446.591,253.721C501.681,232.66 515.218,220.097 517.528,220.432C519.354,220.697 515.008,238.425 517.551,237.76C531.618,234.079 531.066,232.58 545.529,229.964Z" style="fill:rgb(36,27,74);"/>
        <path d="M575.931,261.173C660.187,292.346 673.096,356.912 676.288,418.515C680.879,507.098 673.12,509.44 690.057,538.828C742.556,629.924 661.378,676.102 632.622,668.038C621.809,665.005 635.883,664.813 643.294,658.331C660.373,643.394 629.29,667.951 620.465,658.599C621.069,658.088 621.674,657.577 622.279,657.065C624.512,653.912 627.493,653.779 624.469,651.281C625.556,650.881 635.257,647.313 637.17,644.336C637.45,643.9 637.303,642.51 630.717,643.793C633.638,634.876 643.541,630.663 648.382,627.322C663.968,616.567 676.039,587.015 672.114,581.253C672.991,579.023 673.868,576.793 674.745,574.563C672.507,570.317 672.661,570.444 671.118,565.712C668.352,557.225 669.477,575.402 662.402,585.497C642.158,546.093 622.197,538.689 590.657,537.918C589.787,529.589 565.41,518.017 561.611,517.352C543.787,504.45 496.135,501.669 476.475,511.611C435.96,489.891 420.471,488.875 385.568,492.995C383.722,487.133 404.051,465.725 404.222,465.408C410.103,454.487 400.11,464.765 389.429,471.235C382.691,475.318 393.072,455.83 393.718,454.618C399.561,443.648 390.329,444.614 383.341,425.557C378.711,412.928 388.939,422.65 407.548,430.28C423.794,436.941 388.404,410.965 390.594,401.41C464.899,464.603 539.005,360.54 476.669,307.295C460.801,293.74 431.623,287.408 412.253,299.053C411.401,299.565 410.981,298.532 400.825,303.926C400.672,302.715 399.641,303.548 399.5,302.433C399.485,302.316 399.456,302.087 400.5,301.349C407.832,296.161 421.815,280.619 463.476,280.342C469.761,291.364 479.623,277.891 507.985,307.024C515.314,314.552 516.182,289.814 546.644,282.959C566.783,278.427 540.783,278.321 540.398,276.531C539.85,273.985 546.893,273.451 548.565,272.633C555.979,269.002 555.708,268.825 563.332,266.052C570.46,262.148 572.134,265.632 575.931,261.173Z" style="fill:rgb(66,77,131);"/>
        <path d="M293.026,616.325C292.926,608.108 292.292,555.963 335.818,522.934C427.384,453.452 541.605,539.134 520.778,636.566C497.714,744.462 368.922,753.478 319.907,689.183C313.867,681.26 310.974,688.316 299.652,684.079C251.839,666.182 280.925,592.637 286.733,591.924C288.286,591.734 284.243,616.74 293.026,616.325Z" style="fill:rgb(45,26,69);"/>
        <path d="M575.703,818.575C568.977,874.743 503.987,890.875 468.655,858.329C448.775,840.016 448.473,819.233 448.231,818.679C447.987,818.119 446.867,820.118 446.623,819.558C421.611,895.676 324.304,846.975 349.991,786.698C368.392,743.519 436.817,742.371 447.63,798.398C449.241,806.744 447.364,783.831 465.777,765.764C509.818,722.552 572.847,761.402 575.057,796.8C575.927,810.729 574.818,772.541 606.366,759.214C666.174,733.95 708.899,821.791 649.609,852.707C619.811,868.245 584.702,847.766 578.381,823.539C577.647,820.727 577.444,820.938 576.441,818.152C576.195,818.293 575.949,818.434 575.703,818.575Z" style="fill:rgb(38,24,72);"/>
        <path d="M753.706,260.146C789.683,296.559 861.04,376.241 856.657,520.542C838.127,529.315 842.53,540.227 822.178,539.39C820.305,489.175 782.04,515.319 771.621,508.306C767.77,505.714 775.984,447.766 766.633,442.243C755.818,435.853 728.197,474.158 719.491,474.186C699.704,474.25 695.201,473.686 692.76,474.517C692.418,467.614 692.084,467.516 692.742,466.76C692.947,466.525 692.869,466.623 699.539,465.72C703.125,465.234 710.822,459.386 713.568,458.743C778.227,443.62 784.84,354.881 739.36,311.651C731.923,304.581 733.146,303.759 731.459,293.499C738.889,284.701 748.757,264.58 753.706,260.146Z" style="fill:rgb(124,65,116);"/>
        <path d="M526.342,642.446C527.17,643.557 528.238,646.22 528.374,646.561C529.741,649.97 536.033,659.216 537.913,661.11C578.986,702.476 615.889,684.941 631.797,675.093C672.672,680.264 685.035,647.823 683.804,662.552C683.165,670.19 677.767,734.753 657.397,754.65C595.315,725.464 579.974,780.382 574.898,773.222C569.245,765.25 569.611,765.178 562.989,758.024C523.671,727.475 492.227,732.968 459.639,759.621C453.975,766.295 454.17,766.178 449.243,773.291C446.457,777.313 438.012,749.671 400.503,746.45C374.331,744.202 354.996,764.552 353.68,763.308C347.596,757.557 326.036,706.643 334.433,712.619C404.722,762.648 500.562,736.049 526.342,642.446Z" style="fill:rgb(86,60,113);"/>
        <path d="M331.882,473.366C319.118,474.027 319.288,474.134 306.496,474.065C300.183,474.031 299.627,471.761 289.295,462.75C280.677,455.234 280.86,455.217 272.32,447.68C248.731,426.864 253.231,463.17 253.135,485.442C229.928,493.855 236.456,434.736 207.456,453.44C200.07,458.204 190.513,503.549 167.912,483.55C171.967,432.744 182.151,365.249 246.947,284.856C280.193,243.609 350.514,196.333 340.315,209.403C315.024,241.812 317.36,255.896 312.418,259.395C289.244,275.798 295.726,303.745 290.116,308.09C241.252,345.942 243.62,436.633 305.493,457.518C324.441,463.914 323.736,465.517 325.443,465.778C331.455,466.697 332.262,467.413 331.882,473.366Z" style="fill:rgb(229,69,66);"/>
        <path d="M588.528,292.589C589.249,292.774 631.972,293.018 648.17,334.655C663.498,374.055 634.451,431.778 571.413,418.815C559.784,416.423 554.832,411.03 554.832,411.03C510.052,380.915 510.01,301.31 588.528,292.589Z" style="fill:rgb(32,22,70);"/>
        <path d="M400.825,303.926C410.981,298.532 411.401,299.565 412.253,299.053C431.623,287.408 460.801,293.74 476.669,307.295C539.005,360.54 464.899,464.603 390.594,401.41C369.204,377.619 371.518,360.065 375.66,336.553C381.568,317.855 398.154,305.858 400.825,303.926Z" style="fill:rgb(33,21,69);"/>
        <path d="M616.751,308.08C616.408,308.743 615.364,308.838 615.021,309.5C615.017,309.508 623.816,317.873 628.267,327.614C645.11,364.476 608.011,416.185 562.656,398.076C543.836,390.562 539.335,376.459 537.5,376.591C536.907,376.634 536.684,377.643 536.09,377.686C518.386,326.521 563.209,281.641 616.751,308.08Z" style="fill:rgb(253,253,252);"/>
        <path d="M410.187,307.004C429.229,299.046 429.455,296.846 449.53,301.37C473.897,306.861 484.272,325.542 486.044,328.733C498.657,351.444 490.968,371.928 490.81,372.6C485.472,374.336 471.756,405.791 436.558,401.016C395.377,395.429 377.072,340.925 409.262,310.5C411.035,308.824 411.065,308.711 411.121,308.5C411.402,307.438 409.911,308.049 410.187,307.004Z" style="fill:rgb(253,253,252);"/>
        <path d="M403.532,563.915C473.892,565.608 468.375,645.787 424.331,661C359.809,683.288 325.183,577.905 403.532,563.915Z" style="fill:rgb(241,131,70);"/>
        <path d="M698.216,523.631C798.939,525.38 805.545,519.423 806.712,531.451C807.912,543.827 805.18,668.876 808.936,677.75C806.883,681.043 804.83,684.335 802.778,687.628C799.969,683.328 802.559,672.059 797.169,658.627C778.537,612.201 734.598,616.073 721.102,616.32C721.535,613.382 721.968,610.443 722.401,607.505C723.577,607.725 740.93,613.315 756.256,603.154C799.545,574.452 751.447,506.501 709.738,545.42C705.898,538.157 702.057,530.894 698.216,523.631Z" style="fill:rgb(90,69,131);"/>
        <path d="M674.865,221.314C677.076,224.752 701.189,262.236 697.178,267.28C688.693,277.948 694.244,247.238 643.708,206.25C602.18,172.567 535.376,162.259 498.482,165.303C357.955,176.901 336.875,268.241 331.474,269.064C327.97,269.598 321.723,264.919 346.048,227.232C389.781,159.475 478.873,147.669 508.506,147.986C607.957,149.052 651.31,191.977 674.865,221.314Z" style="fill:rgb(61,131,173);"/>
        <path d="M363.958,609.535C364.311,607.856 366.663,596.66 371.318,589.387C399.349,545.589 457.942,582.797 451.542,615.489C437.495,687.237 359.248,659.69 363.958,609.535Z" style="fill:rgb(224,72,47);"/>
        <path d="M322.915,524.83C315.844,532.013 316.048,531.964 309.684,539.568C265.716,516.867 225.162,571.993 270.736,604.71C268.208,612.69 267.998,612.41 266.011,620.46C218.96,637.428 224.418,682.656 221.487,687.506C220.119,685.368 220.068,685.682 218.624,683.424C218.372,683.03 218.398,683.055 215.579,678.447C217.981,675.334 216.737,674.998 216.818,626.503C216.979,531.111 214.317,523.931 227.509,523.734C314.049,522.436 315.546,522.84 322.915,524.83Z" style="fill:rgb(161,63,92);"/>
        <path d="M167.912,483.55C190.513,503.549 200.07,458.204 207.456,453.44C236.456,434.736 229.928,493.855 253.135,485.442C253.173,487.196 253.597,506.496 253.158,507.372C252.549,508.59 240.597,508.538 239.501,508.533C202.703,508.37 201.897,518.648 202.105,555.605C197.663,557.215 176.7,581.794 176.338,582.554C164.832,529.952 166.313,514.219 167.912,483.55Z" style="fill:rgb(109,67,126);"/>
        <path d="M367.987,614.327C370.807,557.03 448.255,563.383 447.607,615.546C447.025,662.291 369.717,670.648 367.987,614.327Z" style="fill:rgb(245,128,54);"/>
        <path d="M331.882,473.366C331.828,477.458 331.87,477.328 331.542,481.514C320.521,482.67 320.614,480.906 309.533,481.747C306.404,481.985 307.384,488.387 307.381,488.529C307.175,497.088 305.532,508.44 310.5,508.533C312,508.561 322.41,508.755 329.248,508.498C328.938,510.807 328.628,513.116 328.318,515.425C316.436,518.638 223.066,511.582 214.795,519.811C208.962,525.615 209.805,526.873 209.896,647.495C209.906,661.335 209.832,661.272 209.973,662.513C210.125,663.855 210.75,665.18 210.576,666.519C210.502,667.086 209.377,667.101 209.303,667.668C201.262,652.531 202.061,652.199 201.537,650.493C203.245,643.096 202.417,642.991 202.105,555.605C201.897,518.648 202.703,508.37 239.501,508.533C240.597,508.538 252.549,508.59 253.158,507.372C253.597,506.496 253.173,487.196 253.135,485.442C253.231,463.17 248.731,426.864 272.32,447.68C280.86,455.217 280.677,455.234 289.295,462.75C299.627,471.761 300.183,474.031 306.496,474.065C319.288,474.134 319.118,474.027 331.882,473.366Z" style="fill:rgb(40,21,64);"/>
        <path d="M692.76,474.517C695.201,473.686 699.704,474.25 719.491,474.186C728.197,474.158 755.818,435.853 766.633,442.243C775.984,447.766 767.77,505.714 771.621,508.306C782.04,515.319 820.305,489.175 822.178,539.39C821.091,606.583 822.244,641.622 822.537,650.506C820.129,659.758 819.253,659.255 814.794,667.821C813.174,664.384 814.327,664.343 814.38,660.498C816.22,526.578 816.047,523.792 806.267,517.881C799.917,514.043 697.524,516.24 696.222,516.656C695.871,514.255 695.52,511.854 695.168,509.453C697.498,508.728 697.426,509.029 714.515,508.711C719.508,508.618 716.831,506.043 717.056,497.495C716.858,483.177 717.529,482.967 716.167,481.934C715.571,481.483 712.563,481.503 693.448,481.54C692.696,478.761 692.978,478.817 692.76,474.517Z" style="fill:rgb(36,22,65);"/>
        <path d="M557.408,433.483C550.328,441.928 550.412,442.523 539.66,444.896C534.81,445.966 538.918,472.347 519.525,472.78C506.764,473.064 503.949,471.544 500.273,473.947C484.281,460.204 491.708,447.294 484.549,445.362C453.45,436.968 472.388,409.659 481.732,405.959C495.509,400.502 492.902,395.143 507.448,392.205C514.804,390.718 528.501,395.328 530.197,396.967C535.654,402.239 535.544,402.122 542.331,405.803C560.46,415.635 557.208,427.56 557.408,433.483Z" style="fill:rgb(36,22,66);"/>
        <path d="M544.498,237.016C541.439,241.74 540.517,240.363 535.739,242.954C495.111,264.978 492.845,267.208 491.961,263.443C491.542,261.656 505.164,241.984 490.256,251.107C471.418,262.636 445.364,269.414 449.687,271.282C450.205,271.506 465.691,275.364 463.476,280.342C421.815,280.619 407.832,296.161 400.5,301.349C399.456,302.087 399.485,302.316 399.5,302.433C399.641,303.548 400.672,302.715 400.825,303.926C398.154,305.858 381.568,317.855 375.66,336.553C375.101,336.867 374.545,335.948 373.97,337.5C364.647,362.687 357.669,380.776 358.105,423.644C358.154,428.421 364.631,415.904 365.035,415.124C369.474,406.547 366.007,417.948 363.776,435.534C358.192,479.545 355.173,486.481 358.034,482.068C358.92,480.7 375.251,455.506 371.17,466.49C365.662,481.317 364.999,480.969 359.579,500.884C347.601,506.73 346.391,506.962 345.154,507.2C344.45,501.424 346.256,501.494 347.926,434.511C351.612,286.664 409.28,279.314 485.389,245.253C503.71,237.054 509.871,231.118 508.759,235.516C507.196,241.698 501.24,253.882 504.471,252.302C519.049,245.17 518.112,242.953 544.498,237.016Z" style="fill:rgb(238,106,68);"/>
        <path d="M476.475,511.611C496.135,501.669 543.787,504.45 561.611,517.352C565.41,518.017 589.787,529.589 590.657,537.918C535.073,543.181 535.29,575.3 525.212,581.56C507.65,526.234 486.409,524.682 476.475,511.611Z" style="fill:rgb(229,109,76);"/>
        <path d="M375.66,336.553C371.518,360.065 369.204,377.619 390.594,401.41C388.404,410.965 423.794,436.941 407.548,430.28C388.939,422.65 378.711,412.928 383.341,425.557C390.329,444.614 399.561,443.648 393.718,454.618C393.072,455.83 382.691,475.318 389.429,471.235C400.11,464.765 410.103,454.487 404.222,465.408C404.051,465.725 383.722,487.133 385.568,492.995C372.225,496.014 372.49,496.225 359.579,500.884C364.999,480.969 365.662,481.317 371.17,466.49C375.251,455.506 358.92,480.7 358.034,482.068C355.173,486.481 358.192,479.545 363.776,435.534C366.007,417.948 369.474,406.547 365.035,415.124C364.631,415.904 358.154,428.421 358.105,423.644C357.669,380.776 364.647,362.687 373.97,337.5C374.545,335.948 375.101,336.867 375.66,336.553Z" style="fill:rgb(150,64,99);"/>
        <path d="M544.498,237.016C552.308,236.648 545.374,241.196 539.883,250.741C536.922,255.887 533.497,260.072 538.571,257.921C550.352,252.926 571.57,260.08 575.931,261.173C572.134,265.632 570.46,262.148 563.332,266.052C555.708,268.825 555.979,269.002 548.565,272.633C546.893,273.451 539.85,273.985 540.398,276.531C540.783,278.321 566.783,278.427 546.644,282.959C516.182,289.814 515.314,314.552 507.985,307.024C479.623,277.891 469.761,291.364 463.476,280.342C465.691,275.364 450.205,271.506 449.687,271.282C445.364,269.414 471.418,262.636 490.256,251.107C505.164,241.984 491.542,261.656 491.961,263.443C492.845,267.208 495.111,264.978 535.739,242.954C540.517,240.363 541.439,241.74 544.498,237.016Z" style="fill:rgb(152,63,98);"/>
        <path d="M714.21,634.405C781.799,616.051 802.007,679.56 775.746,714.651C764.868,706.402 765.146,706.319 755.159,697.074C772.476,658.52 729.582,644.456 713.161,672.411C712.552,671.796 710.312,667.316 698.629,660.49C698.636,660.444 698.052,655.889 700.848,652.822C708.567,644.355 707.981,644.123 714.21,634.405Z" style="fill:rgb(228,66,66);"/>
        <path d="M721.102,616.32C734.598,616.073 778.537,612.201 797.169,658.627C802.559,672.059 799.969,683.328 802.778,687.628C788.346,712.456 758.824,743.128 754.557,747.562C748.223,744.063 718.997,758.2 687.679,727.549C691.673,712.244 691.848,712.482 692.179,711.163C728.895,750.406 757.618,732.987 775.746,714.651C802.007,679.56 781.799,616.051 714.21,634.405C718.883,624.537 718.154,624.448 721.102,616.32Z" style="fill:rgb(39,22,69);"/>
        <path d="M687.679,727.549C718.997,758.2 748.223,744.063 754.557,747.562C749.791,752.137 723.201,777.668 689.272,798.136C684.528,800.998 686.296,796.6 684.731,790.426C680.996,775.699 670.005,764.881 670.666,763.57C679.656,745.729 679.961,746.01 687.679,727.549Z" style="fill:rgb(81,69,131);"/>
        <path d="M320.857,332.569C319.615,338.319 314.057,364.047 311.823,405.556C309.158,401.794 309.35,401.845 307.209,397.763C304.899,393.359 302.884,426.596 287.094,404.803C275.663,383.211 282.374,381.483 281.142,379.841C276.787,374.041 276.565,407.78 276.039,408.733C272.363,392.172 265.339,373.933 282.302,339.373C284.245,344.709 280.996,345.002 282.787,350.435C283.084,351.336 288.477,367.701 289.176,360.434C289.23,359.877 287.131,341.158 298.605,328.581C304.448,322.176 311.774,319.339 310.37,322.474C307.73,328.371 305.214,331.895 308.466,343.528C309.697,347.935 315.168,330.518 320.857,332.569Z" style="fill:rgb(246,119,57);"/>
        <path d="M698.629,660.49C710.312,667.316 712.552,671.796 713.161,672.411C705.408,703.764 734.503,717.096 755.159,697.074C765.146,706.319 764.868,706.402 775.746,714.651C757.618,732.987 728.895,750.406 692.179,711.163C694.916,698.971 696.969,686.918 698.629,660.49Z" style="fill:rgb(242,136,57);"/>
        <path d="M856.657,520.542C854.628,549.456 852.942,563.74 845.673,591.54C839.906,613.598 827.137,646.803 822.537,650.506C822.244,641.622 821.091,606.583 822.178,539.39C842.53,540.227 838.127,529.315 856.657,520.542Z" style="fill:rgb(64,149,190);"/>
        <path d="M615.477,617.593C615.866,617.567 618.093,618.524 618.071,615.488C617.944,598.469 618.105,588.364 617.232,587.831C615.857,586.992 581.799,596.247 581.442,596.371C577.042,597.897 583.267,636.468 577.173,645.298C563.413,665.237 535.804,641.14 557.745,628.932C565.693,624.509 572.078,631.645 572.046,622.505C571.918,586.106 570.884,580.221 575.621,578.94C621.222,566.608 621.806,565.741 624.953,568.27C626.076,572.63 626.48,574.199 625.567,624.541C625.179,624.89 619.942,627.897 611.183,643.048C603.991,642.357 602.877,642.095 598.234,637.721C594.433,631.203 594.594,615.678 615.477,617.593Z" style="fill:rgb(78,206,230);"/>
        <path d="M266.011,620.46C264.174,628.962 264.216,628.754 263.482,637.494C250.897,640.274 218.877,679.75 250.358,716.576C251.575,717.928 259.523,726.765 268.662,730.061C296.546,740.12 311.767,728.89 325.728,719.331C327.084,724.04 328.439,728.749 329.794,733.458C328.63,734.683 329.041,734.898 327.648,735.716C296.082,754.246 284.997,746.737 271.5,746.458C270.981,746.447 270.945,747.598 270.426,747.587C250.762,730.116 227.429,698.669 221.487,687.506C224.418,682.656 218.96,637.428 266.011,620.46Z" style="fill:rgb(39,22,68);"/>
        <path d="M329.794,733.458C340.12,758.584 342.894,757.107 348.121,769.643C349.054,771.881 345.335,771.101 338.01,798.217C337.767,799.118 306.515,784.617 270.426,747.587C270.945,747.598 270.981,746.447 271.5,746.458C284.997,746.737 296.082,754.246 327.648,735.716C329.041,734.898 328.63,734.683 329.794,733.458Z" style="fill:rgb(165,64,94);"/>
        <path d="M410.187,307.004C409.911,308.049 411.402,307.438 411.121,308.5C411.065,308.711 411.035,308.824 409.262,310.5C377.072,340.925 395.377,395.429 436.558,401.016C471.756,405.791 485.472,374.336 490.81,372.6C462.699,449.735 358.326,408.083 383.555,336.524C389.082,320.849 407.528,308.749 410.187,307.004Z" style="fill:rgb(191,216,225);"/>
        <path d="M616.751,308.08C663.634,338.224 641.303,383.563 632.13,394.18C613.093,416.216 561.454,430.783 536.09,377.686C536.684,377.643 536.907,376.634 537.5,376.591C539.335,376.459 543.836,390.562 562.656,398.076C608.011,416.185 645.11,364.476 628.267,327.614C623.816,317.873 615.017,309.508 615.021,309.5C615.364,308.838 616.408,308.743 616.751,308.08Z" style="fill:rgb(190,215,224);"/>
        <path d="M696.222,516.656C697.524,516.24 799.917,514.043 806.267,517.881C816.047,523.792 816.22,526.578 814.38,660.498C814.327,664.343 813.174,664.384 814.794,667.821C812.841,671.131 810.888,674.44 808.936,677.75C805.18,668.876 807.912,543.827 806.712,531.451C805.545,519.423 798.939,525.38 698.216,523.631C696.607,520.202 696.329,520.391 696.222,516.656Z" style="fill:rgb(70,117,165);"/>
        <path d="M328.318,515.425C328.165,521.251 327.134,520.829 322.915,524.83C315.546,522.84 314.049,522.436 227.509,523.734C214.317,523.931 216.979,531.111 216.818,626.503C216.737,674.998 217.981,675.334 215.579,678.447C213.487,674.854 211.395,671.261 209.303,667.668C209.377,667.101 210.502,667.086 210.576,666.519C210.75,665.18 210.125,663.855 209.973,662.513C209.832,661.272 209.906,661.335 209.896,647.495C209.805,526.873 208.962,525.615 214.795,519.811C223.066,511.582 316.436,518.638 328.318,515.425Z" style="fill:rgb(232,93,70);"/>
        <path d="M712.199,397.528C713.292,396.367 715.239,394.745 715.515,394.515C722.168,388.974 712.757,382.236 718.376,368.454C723.874,354.967 724.744,355.085 724.55,340.51C724.503,336.909 731.861,345.076 730.782,353.533C730.242,357.769 724.315,374.412 731.822,383.24C732.894,384.5 736.084,381.024 736.253,383.565C737.367,400.328 736.855,401.958 736.378,403.478C735.94,404.87 736.658,404.663 736.944,405.877C741.107,398.46 741.506,398.775 743.68,390.537C744.638,386.905 741.511,372.327 744.271,378.661C751.243,394.666 746.172,406.885 747.866,410.672C741.237,422.994 742.694,424.034 732.385,433.371C726.572,438.635 716.822,442.344 713.515,442.918C709.936,443.54 713.605,440.468 712.199,397.528Z" style="fill:rgb(216,54,60);"/>
        <path d="M310.556,694.003C320.283,696.234 321.327,701.674 325.728,719.331C311.767,728.89 296.546,740.12 268.662,730.061C259.523,726.765 251.575,717.928 250.358,716.576C251.766,714.907 252.2,715.39 269.677,697.289C292.948,718.819 303.85,699.041 310.556,694.003Z" style="fill:rgb(241,136,58);"/>
        <path d="M713.161,672.411C729.582,644.456 772.476,658.52 755.159,697.074C734.503,717.096 705.408,703.764 713.161,672.411Z" style="fill:rgb(39,23,69);"/>
        <path d="M753.706,260.146C748.757,264.58 738.889,284.701 731.459,293.499C729.472,290.424 723.966,266.805 716.206,261.918C709.556,257.731 710.596,256.79 707.686,249.431C697.9,224.689 678.15,202.879 685.468,207.595C719.434,229.487 730.482,237.115 753.706,260.146Z" style="fill:rgb(242,133,57);"/>
        <path d="M702.948,329.391C704.926,330.483 704.56,330.602 706.793,333.141C711.331,338.303 710.502,338.649 714.723,344.304C715.816,345.769 722.25,344.15 713.751,321.479C712.421,317.931 734.597,327.498 735.339,352.501C736.194,381.277 742.525,341.004 742.881,340.281C751.527,360.379 758.765,377.373 747.866,410.672C746.172,406.885 751.243,394.666 744.271,378.661C741.511,372.327 744.638,386.905 743.68,390.537C741.506,398.775 741.107,398.46 736.944,405.877C736.658,404.663 735.94,404.87 736.378,403.478C736.855,401.958 737.367,400.328 736.253,383.565C736.084,381.024 732.894,384.5 731.822,383.24C724.315,374.412 730.242,357.769 730.782,353.533C731.861,345.076 724.503,336.909 724.55,340.51C724.744,355.085 723.874,354.967 718.376,368.454C712.757,382.236 722.168,388.974 715.515,394.515C715.239,394.745 713.292,396.367 712.199,397.528C709.55,362.916 708.504,353.365 702.948,329.391Z" style="fill:rgb(246,145,62);"/>
        <path d="M670.366,317.662C689.424,310.971 690.787,323.318 697.868,352.417C698.531,355.142 698.554,355.157 698.754,355.291C699.947,356.083 699.761,353.674 700.925,354.448C703.559,378.726 707.749,398.083 702.23,401.039C683.508,411.067 685.67,397.512 682.629,376.484C677.266,339.388 671.836,325.657 670.366,317.662Z" style="fill:rgb(58,98,153);"/>
        <path d="M263.482,637.494C265.115,659.769 267.895,661.476 269.798,667.2C258.296,675.533 268.561,695.156 269.677,697.289C252.2,715.39 251.766,714.907 250.358,716.576C218.877,679.75 250.897,640.274 263.482,637.494Z" style="fill:rgb(226,68,66);"/>
        <path d="M354.62,317.588C333.927,388.849 346.754,405.134 329.525,403.272C318.554,402.087 318.157,397.811 322.95,362.517C325.159,359.947 326.071,355.979 326.212,355.367C334.041,321.316 334.551,311.566 354.62,317.588Z" style="fill:rgb(58,98,153);"/>
        <path d="M715.668,559.457C716.411,559.089 734.333,539.034 751.422,555.582C762.953,566.749 761.495,602.841 724.5,591.567C724.381,591.531 724.5,591.567 722.951,591.44C720.478,575.116 720.41,575.246 715.668,559.457Z" style="fill:rgb(39,22,67);"/>
        <path d="M202.105,555.605C202.417,642.991 203.245,643.096 201.537,650.493C192.966,644.22 177.847,588.151 176.338,582.554C176.7,581.794 197.663,557.215 202.105,555.605Z" style="fill:rgb(62,151,191);"/>
        <path d="M465.323,642.562C465.696,644.957 465.762,644.715 466.979,646.624C465.758,654.225 470.048,649.6 470.229,649.315C482.966,629.26 479.684,607.204 482.093,609.876C488.333,616.795 474.973,649.291 473.651,652.507C474.144,653.635 474.227,653.426 475.388,653.352C475.81,652.65 482.969,640.712 482.036,645.562C477.415,669.57 437.357,697.238 435.458,686.529C435.259,685.409 406.633,693.844 402.836,690.158C399.137,686.566 412.751,693.123 439.284,680.249C445.145,677.404 433.769,679.109 431.126,676.561C431.268,676.476 436.779,671.781 430.505,674.585C428.483,675.186 413.134,679.748 404.45,678.629C380.6,675.556 413.435,680.992 434.352,669.211C471.139,648.492 468.227,611.326 468.802,610.712C470.552,608.839 473.908,611.819 465.323,642.562Z" style="fill:rgb(169,85,78);"/>
        <path d="M590.657,537.918C622.197,538.689 642.158,546.093 662.402,585.497C662.254,586.259 659.415,600.888 657.189,593.676C636.419,526.389 553.102,531.273 531.372,587.45C530.167,590.567 530.121,590.365 528.766,593.522C527.581,589.535 526.397,585.547 525.212,581.56C535.29,575.3 535.073,543.181 590.657,537.918Z" style="fill:rgb(76,199,224);"/>
        <path d="M709.738,545.42C751.447,506.501 799.545,574.452 756.256,603.154C740.93,613.315 723.577,607.725 722.401,607.505C722.546,604.518 722.69,601.532 722.835,598.546C728.455,602.357 739.218,602.035 743.604,600.81C790.023,587.837 753.702,511.625 713.077,552.788L709.738,545.42Z" style="fill:rgb(38,21,69);"/>
        <path d="M518.946,787.507C519.779,783.066 518.209,781.939 522.373,780.22C524.87,779.19 533.135,779.128 535.074,780.995C538.102,783.911 537.377,784.52 537.067,833.501C537.022,840.659 535.073,841.523 528.5,841.498C516.342,841.451 518.937,835.463 518.946,787.507Z" style="fill:rgb(243,131,58);"/>
        <path d="M486.943,786.513C487.034,785.87 487.823,780.252 491.574,779.849C509.279,777.945 504.886,788.447 504.953,818.499C504.989,834.439 509.482,841.864 493.502,841.445C485.665,841.239 486.947,837.274 486.943,786.513Z" style="fill:rgb(244,132,57);"/>
        <path d="M758.668,465.476C758.385,505.396 758.892,505.784 756.499,508.749C739.765,508.722 725.713,508.961 724.783,508.17C723.172,506.8 724.151,506.358 724.13,490.505C734.926,482.389 735.004,482.77 745.205,474.125C754.443,466.297 753.966,463.411 758.668,465.476Z" style="fill:rgb(248,74,52);"/>
        <path d="M381.93,816.495C382.053,783.386 382.029,783.597 382.082,783.35C382.953,779.312 422.192,804.841 421.897,806.586C421.227,810.558 387.713,829.055 384.6,830.774C380.306,833.144 382.418,828.897 381.93,816.495Z" style="fill:rgb(229,69,68);"/>
        <path d="M547.955,418.198C554.96,429.633 548.416,451.526 514.249,430.938C510.388,428.611 494.662,443.35 480.655,437.17C463.413,429.561 486.459,404.392 490.059,409.886C496.649,419.942 498.594,420.256 511.499,421.896C512.418,422.003 531.494,436.279 541.069,430.041C547.263,426.006 541.435,421.361 547.955,418.198Z" style="fill:rgb(240,113,62);"/>
        <path d="M300.042,488.437C300.044,491.36 301.541,508.724 297.504,508.703C280.991,508.617 281.144,508.502 264.522,508.739C269.065,502.392 262.28,461.168 268.355,465.779C288.523,481.086 293.914,489.971 300.042,488.437Z" style="fill:rgb(141,64,106);"/>
        <path d="M287.094,404.803C302.884,426.596 304.899,393.359 307.209,397.763C309.35,401.845 309.158,401.794 311.823,405.556C311.36,423.735 311.119,423.584 313.315,441.488C313.843,445.795 301.555,439.658 300.633,439.197C284.012,430.897 276.876,410.382 276.039,408.733C276.565,407.78 276.787,374.041 281.142,379.841C282.374,381.483 275.663,383.211 287.094,404.803Z" style="fill:rgb(192,41,72);"/>
        <path d="M442.669,350.646C445.012,349.697 467.281,340.681 471.531,363.494C476.996,392.826 424.347,392.418 435.815,358.651C437.433,353.887 441.529,369.26 448.462,362.461C456.198,354.873 443.551,352.379 442.624,352.197C442.624,352.197 442.666,350.77 442.669,350.646Z" style="fill:rgb(34,23,68);"/>
        <path d="M561.589,351.476C582.117,334.776 606.217,371.667 578.49,384.474C563.519,391.389 546.643,369.913 555.713,356.712C557.037,354.786 559.408,368.071 567.164,363.044C567.41,362.885 574.093,353.85 562.553,352.259C562.232,351.998 561.91,351.737 561.589,351.476Z" style="fill:rgb(34,22,67);"/>
        <path d="M282.205,619.432C282.396,619.698 283.62,620.153 284.429,622.528C288.895,635.648 301.573,636.507 323.505,648.377C313.831,651.234 301.643,650.494 311.421,652.71C324.259,655.62 334.189,649.161 329.736,661.598C328.005,666.435 310.896,661.96 308.141,664.304C291.099,665.663 280.698,636.832 279.403,634.505C280.216,626.689 280.129,626.849 282.205,619.432Z" style="fill:rgb(152,66,101);"/>
        <path d="M713.077,552.788C753.702,511.625 790.023,587.837 743.604,600.81C739.218,602.035 728.455,602.357 722.835,598.546L722.951,591.44C724.5,591.567 724.381,591.531 724.5,591.567C761.495,602.841 762.953,566.749 751.422,555.582C734.333,539.034 716.411,559.089 715.668,559.457C714.804,557.234 713.941,555.011 713.077,552.788Z" style="fill:rgb(151,66,101);"/>
        <path d="M309.878,570.243C309.868,570.064 319.856,535.234 359.401,517.14C359.754,516.978 376.188,509.459 364.251,517.257C331.217,538.837 376.49,506.877 415.617,511.27C433.211,513.246 397.575,511.444 376.649,518.934C302.221,545.574 310.225,622.905 306.425,617.592C305.596,616.432 306.518,596.414 310.898,581.593C314.989,567.754 322.741,551.592 314.76,563.814C312.495,567.284 312.589,567.212 309.878,570.243Z" style="fill:rgb(166,87,81);"/>
        <path d="M504.916,655.923C509.828,658.072 491.906,683.013 484.038,691.064C471.684,703.705 452.709,713.254 451.415,712.818C444.834,710.6 455.267,711.744 458.422,705.475C461.649,699.062 444.006,717.847 403.527,717.302C399.82,717.252 396.891,714.371 400.497,714.754C423.882,717.238 475.36,705.568 498.613,653.551C513.255,620.798 505.495,572.875 509.405,608.535C512.851,639.948 484.267,695.915 504.916,655.923Z" style="fill:rgb(157,83,85);"/>
        <path d="M397.526,281.556C390.261,285.986 388.128,272.68 375.433,276.268C367.094,278.626 363.974,292.234 369.764,300.338C378.815,313.005 368.494,311.758 367.921,311.1C365.589,308.422 344.154,283.811 363.873,266.904C381.081,252.151 406.018,274.838 400.401,279.388C399.468,280.143 398.458,280.801 397.526,281.556Z" style="fill:rgb(179,82,95);"/>
        <path d="M319.751,615.358C320.475,573.542 334.695,570.776 328.63,570.32C327.087,570.203 317.746,583.974 322.308,573.458C342.229,527.529 385.499,522.293 369.661,529.859C346.075,541.127 381.435,526.004 400.48,524.196C414.84,522.832 415.519,526.077 414.403,526.226C412.512,526.478 406.743,525.454 392.445,528.254C330.33,540.416 323.049,602.737 322.038,611.394C321.458,616.357 320.067,615.542 319.751,615.358Z" style="fill:rgb(169,87,78);"/>
        <path d="M487.307,659.231C487.695,658.583 497.148,642.774 493.954,652.525C481.869,689.42 432.145,709.84 444.513,699.509C461.212,685.561 433.261,705.69 405.565,704.029C388.39,702.999 411.007,701.667 411.52,701.637C469.164,698.241 498.969,634.891 493.722,610.508C493.35,608.782 495.923,608.096 495.956,611.209C496.362,649.33 481.756,656.729 487.307,659.231Z" style="fill:rgb(162,84,82);"/>
        <path d="M529.813,633.431C552.548,690.381 602.515,680.821 616.578,675.7C623.641,673.127 623.698,672.828 631.797,675.093C615.889,684.941 578.986,702.476 537.913,661.11C536.033,659.216 529.741,649.97 528.374,646.561C528.238,646.22 527.17,643.557 526.342,642.446C528.546,633.807 529.277,634.131 529.813,633.431Z" style="fill:rgb(70,187,214);"/>
        <path d="M269.798,667.2C273.037,671.803 282.363,692.757 310.556,694.003C303.85,699.041 292.948,718.819 269.677,697.289C268.561,695.156 258.296,675.533 269.798,667.2Z" style="fill:rgb(39,23,67);"/>
        <path d="M309.684,539.568L304.809,546.789C270.658,526.065 238.222,571.118 273.764,598.58C272.754,600.623 271.745,602.667 270.736,604.71C225.162,571.993 265.716,516.867 309.684,539.568Z" style="fill:rgb(38,21,67);"/>
        <path d="M623.355,811.054C603.604,824.906 601.108,829.011 600.946,824.436C599.676,788.561 599.483,786.389 602.421,786.988C602.977,787.101 602.769,787.075 623.549,802.401C628.64,799.463 620.087,782.112 631.255,789.878C636.788,793.725 650.01,805.007 650.137,802.35C650.31,798.732 650.098,795.106 650.108,791.484C650.126,784.842 655.018,786.672 655.119,790.532C656.02,825.041 653.958,826.886 651.374,825.726C650.335,825.259 650.075,810.76 648.477,811.029C646.603,811.345 625.779,829.217 625.317,824.564C624.515,816.472 631.218,812.962 623.355,811.054Z" style="fill:rgb(241,136,64);"/>
        <path d="M320.857,332.569C315.168,330.518 309.697,347.935 308.466,343.528C305.214,331.895 307.73,328.371 310.37,322.474C311.774,319.339 304.448,322.176 298.605,328.581C287.131,341.158 289.23,359.877 289.176,360.434C288.477,367.701 283.084,351.336 282.787,350.435C280.996,345.002 284.245,344.709 282.302,339.373C284.707,335.958 304.983,307.163 325.615,310.208C327.425,310.475 326.607,311.424 320.857,332.569Z" style="fill:rgb(240,85,54);"/>
        <path d="M702.948,329.391C697.571,311.274 697.907,310.31 699.463,310.213C722.369,308.78 740.576,336.74 742.881,340.281C742.525,341.004 736.194,381.277 735.339,352.501C734.597,327.498 712.421,317.931 713.751,321.479C722.25,344.15 715.816,345.769 714.723,344.304C710.502,338.649 711.331,338.303 706.793,333.141C704.56,330.602 704.926,330.483 702.948,329.391Z" style="fill:rgb(239,86,54);"/>
        <path d="M301.904,551.686C299.746,555.939 297.588,560.193 295.43,564.446C280.527,559.65 274.125,569.447 284.65,580.537C282.402,583.994 280.154,587.451 277.907,590.908C260.402,581.768 266.399,563.349 270.966,557.845C283.523,542.711 297.591,551.941 301.904,551.686Z" style="fill:rgb(38,23,69);"/>
        <path d="M222.219,346.35C222.932,345.128 230.383,332.361 233.491,332.729C248.506,334.509 196.427,367.48 236.256,419.649C238.38,422.431 234.105,427.099 230.647,423.347C202.329,392.618 219.772,352.043 222.219,346.35Z" style="fill:rgb(249,137,61);"/>
        <path d="M797.589,353.467C793.564,345.519 793.75,345.618 788.576,338.447C785.364,333.995 789.977,329.875 795.102,335.827C826.526,372.313 798.667,431.804 788.904,424.022C779.008,416.135 816.853,410.137 797.589,353.467Z" style="fill:rgb(237,130,69);"/>
        <path d="M304.809,546.789L301.904,551.686C297.591,551.941 283.523,542.711 270.966,557.845C266.399,563.349 260.402,581.768 277.907,590.908L273.764,598.58C238.222,571.118 270.658,526.065 304.809,546.789Z" style="fill:rgb(79,76,132);"/>
        <path d="M300.042,488.437C293.914,489.971 288.523,481.086 268.355,465.779C262.28,461.168 269.065,502.392 264.522,508.739C262.09,508.411 261.074,509.153 261.025,506.574C260.951,502.674 260.707,450.178 260.97,449.763C262.35,447.585 300.019,481.137 300.083,483.529C300.127,485.164 299.998,486.801 300.042,488.437Z" style="fill:rgb(216,86,75);"/>
        <path d="M662.549,268.47C669.06,281.248 671.128,281.514 667.074,295.375C666.289,298.062 658.022,316.255 653.093,309.883C646.569,301.447 663.09,297.675 657.003,283.693C653.47,275.577 642.657,273.554 635.74,278.87C631.092,282.443 630.18,285.046 626.497,280.547C639.988,268.03 643.975,264.528 660.509,269.42C660.681,269.472 660.509,269.42 662.549,268.47Z" style="fill:rgb(61,52,107);"/>
        <path d="M758.668,465.476C753.966,463.411 754.443,466.297 745.205,474.125C735.004,482.77 734.926,482.389 724.13,490.505C724.223,483.097 723.561,482.455 729.402,477.39C745.17,463.717 744.805,463.582 760.653,449.729C764.077,446.736 763.84,451.638 763.577,506.506C763.555,511.172 761.136,508.604 756.499,508.749C758.892,505.784 758.385,505.396 758.668,465.476Z" style="fill:rgb(243,140,63);"/>
        <path d="M279.403,634.505C280.698,636.832 291.099,665.663 308.141,664.304C315.023,672.963 331.611,664.679 326.083,671.237C311.665,688.342 276.774,676.723 279.403,634.505Z" style="fill:rgb(67,57,115);"/>
        <path d="M672.114,581.253C676.039,587.015 663.968,616.567 648.382,627.322C643.541,630.663 633.638,634.876 630.717,643.793C629.884,644.267 619.473,650.186 618.853,645.5C616.88,630.604 656.339,624.829 672.114,581.253Z" style="fill:rgb(237,112,74);"/>
        <path d="M709.433,304.784C702.069,303.569 699.495,303.701 698.504,300.499C692.496,281.092 689.415,277.514 698.58,274.828C710.875,271.225 709.542,277.258 713.624,289.457C719.07,305.731 716.823,306.831 715.506,306.459C712.472,305.602 712.599,305.657 709.433,304.784Z" style="fill:rgb(187,66,73);"/>
        <path d="M312.761,304.961C307.539,307.006 307.323,305.954 307.369,305.522C307.678,302.647 313.903,273.039 319.494,273.401C338.334,274.62 332.098,283.333 326.058,301.308C325.954,301.617 326.289,302.748 312.761,304.961Z" style="fill:rgb(187,67,73);"/>
        <path d="M307.381,488.529C309.28,488.664 327.521,489.953 331.175,488.479C330.334,498.704 330.424,498.468 329.248,508.498C322.41,508.755 312,508.561 310.5,508.533C305.532,508.44 307.175,497.088 307.381,488.529Z" style="fill:rgb(135,67,110);"/>
        <path d="M693.395,488.505C714.291,489.709 715.305,488.739 715.324,490.5C715.33,491.076 715.374,495.242 717.056,497.495C716.831,506.043 719.508,508.618 714.515,508.711C697.426,509.029 697.498,508.728 695.168,509.453C695.005,507.779 694.394,501.507 693.395,488.505Z" style="fill:rgb(242,78,57);"/>
        <path d="M396.04,613.463C396.155,612.961 396.065,606.633 403.435,603.33C406.548,601.936 412.003,602.692 414.344,604.707C431.937,619.852 398.309,637.718 396.04,613.463Z" style="fill:rgb(43,22,62);"/>
        <path d="M547.955,418.198C541.435,421.361 547.263,426.006 541.069,430.041C531.494,436.279 512.418,422.003 511.499,421.896C516.443,421.206 524.086,422.119 532.219,414.203C534.166,412.309 536.589,405.008 547.955,418.198Z" style="fill:rgb(243,132,64);"/>
        <path d="M790.031,376.51C789.936,379.049 788.889,406.868 778.542,406.12C769.019,405.431 791.306,385.423 779.073,362.711C778.678,361.977 770.834,347.414 780.568,352.393C786.734,355.546 789.709,374.462 790.031,376.51Z" style="fill:rgb(237,129,66);"/>
        <path d="M241.902,372.544C240.427,396.286 247.571,394.915 248.68,402.48C249.985,411.385 235.899,403.577 234.437,381.505C233.096,361.239 247.622,344.413 249.097,354.522C249.321,356.058 246.331,355.007 241.902,372.544Z" style="fill:rgb(249,137,60);"/>
        <path d="M354.62,317.588C334.551,311.566 334.041,321.316 326.212,355.367C326.071,355.979 325.159,359.947 322.95,362.517C326.432,334.959 331.932,294.254 354.285,307.828C359.288,310.866 356.565,312.129 354.62,317.588Z" style="fill:rgb(81,186,213);"/>
        <path d="M670.366,317.662C661.767,303.004 685.966,301.861 690.168,311.665C694.949,322.819 697.216,336.826 700.925,354.448C699.761,353.674 699.947,356.083 698.754,355.291C698.554,355.157 698.531,355.142 697.868,352.417C690.787,323.318 689.424,310.971 670.366,317.662Z" style="fill:rgb(78,189,218);"/>
        <path d="M557.408,433.483C555.475,444.084 557.24,446.071 547.554,450.602C535.648,456.17 540.055,459.954 533.218,471.327C527.862,480.237 505.709,476.897 500.273,473.947C503.949,471.544 506.764,473.064 519.525,472.78C538.918,472.347 534.81,445.966 539.66,444.896C550.412,442.523 550.328,441.928 557.408,433.483Z" style="fill:rgb(52,50,107);"/>
        <path d="M510.94,455.509C510.599,463.86 512.526,465.944 508.522,465.995C496.939,466.144 497.898,462.699 495.256,451.561C494.049,446.472 494.291,445.594 499.36,444.007C502.584,442.997 509.655,439.09 510.439,439.585C511.61,440.326 510.976,440.712 510.94,455.509Z" style="fill:rgb(247,249,248);"/>
        <path d="M514.918,457.486C514.974,440.621 515.246,439.711 516.551,440.189C530.302,445.236 530.816,445.272 530.671,446.501C527.601,472.433 515.088,466.633 514.964,464.461C514.831,462.14 515.051,459.807 514.918,457.486Z" style="fill:rgb(250,251,250);"/>
        <path d="M282.205,619.432C283.548,617.718 283.75,616.322 284.889,618.056C293.047,630.474 307.38,632.873 314.325,635.935C320.376,638.603 331.81,647.627 323.505,648.377C301.573,636.507 288.895,635.648 284.429,622.528C283.62,620.153 282.396,619.698 282.205,619.432Z" style="fill:rgb(235,111,77);"/>
        <path d="M732.026,674.586C732.055,669.23 730.78,668.214 735.599,665.692C740.551,663.099 744.615,665.519 745.28,665.916C759.213,674.213 738.538,693.604 732.026,674.586Z" style="fill:rgb(103,63,122);"/>
        <path d="M738.369,562.95C757.087,572.636 731.69,589.108 727.244,574.594C723.734,563.138 737.081,562.966 738.369,562.95Z" style="fill:rgb(239,111,60);"/>
        <path d="M662.549,268.47C660.509,269.42 660.681,269.472 660.509,269.42C643.975,264.528 639.988,268.03 626.497,280.547C615.308,278.009 637.642,256.708 654.553,263.356C658.637,264.961 658.273,265.348 662.549,268.47Z" style="fill:rgb(64,98,150);"/>
        <path d="M693.448,481.54C712.563,481.503 715.571,481.483 716.167,481.934C717.529,482.967 716.858,483.177 717.056,497.495C715.374,495.242 715.33,491.076 715.324,490.5C715.305,488.739 714.291,489.709 693.395,488.505C693.814,482.078 693.333,482.085 693.448,481.54Z" style="fill:rgb(239,140,67);"/>
        <path d="M331.542,481.514L331.431,482.479C331.448,482.819 331.466,483.159 331.483,483.498L331.175,488.479C327.521,489.953 309.28,488.664 307.381,488.529C307.384,488.387 306.404,481.985 309.533,481.747C320.614,480.906 320.521,482.67 331.542,481.514Z" style="fill:rgb(222,83,71);"/>
        <path d="M295.43,564.446C292.962,568.489 293.815,568.998 284.65,580.537C274.125,569.447 280.527,559.65 295.43,564.446Z" style="fill:rgb(231,105,67);"/>
        <path d="M800.115,536.547C799.658,553.416 781.247,541.471 788.68,533.673C795.999,525.994 799.772,535.669 800.115,536.547Z" style="fill:rgb(40,24,74);"/>
        <path d="M231.518,544.732C216.443,542.652 227.853,526.024 235.427,533.575C242.618,540.743 232.408,544.412 231.518,544.732Z" style="fill:rgb(45,22,70);"/>
        <path d="M501.363,399.191C502.171,399.063 510.546,397.733 511.51,400.496C514.357,408.662 490.247,406.837 501.363,399.191Z" style="fill:rgb(109,105,153);"/>
        <path d="M624.469,651.281C627.493,653.779 624.512,653.912 622.279,657.065C621.674,657.577 621.069,658.088 620.465,658.599C615.054,654.771 617.977,652.333 624.469,651.281Z" style="fill:rgb(213,109,96);"/>
        <path d="M465.323,642.562C468.254,640.723 468.226,640.72 468.488,640.576C470.804,639.303 467.21,646.182 466.979,646.624C465.762,644.715 465.696,644.957 465.323,642.562Z" style="fill:rgb(138,78,89);"/>
        <path d="M430.505,674.585C436.779,671.781 431.268,676.476 431.126,676.561L430.505,674.585Z" style="fill:rgb(116,47,53);"/>
        <path d="M696.5,280.026C696.305,280.144 694.063,281.5 694.063,281.5C692.818,279.871 694.853,281.022 696.5,280.026Z" style="fill:rgb(172,49,57);"/>
        <path d="M571.018,644.542C571.739,645.997 573.791,646.336 571.989,646.5C571.559,646.539 571.692,646.387 571.018,644.542Z" style="fill:rgb(63,199,229);"/>
        <path d="M620.185,668.074C618.895,669.206 619.274,670.96 618.46,669.587C618.46,669.587 620.047,668.195 620.185,668.074Z" style="fill:rgb(37,25,70);"/>
        <path d="M473.651,652.507C473.883,652.785 473.758,652.657 475.388,653.352C474.227,653.426 474.144,653.635 473.651,652.507Z" style="fill:rgb(131,52,51);"/>
        <path d="M481.661,423.075C481.791,422.887 481.161,422.687 481.291,422.5C481.732,421.864 482.391,421.864 482.5,421.864C483.762,421.864 482.369,422.053 481.661,423.075Z" style="fill:rgb(248,136,55);"/>
    </g>
</svg>
