<?xml version="1.0" encoding="UTF-8" standalone="no"?>
<!DOCTYPE svg PUBLIC "-//W3C//DTD SVG 1.1//EN" "http://www.w3.org/Graphics/SVG/1.1/DTD/svg11.dtd">
<svg width="100%" height="100%" viewBox="0 0 1800 1800" version="1.1" xmlns="http://www.w3.org/2000/svg" xmlns:xlink="http://www.w3.org/1999/xlink" xml:space="preserve" xmlns:serif="http://www.serif.com/" style="fill-rule:evenodd;clip-rule:evenodd;stroke-linejoin:round;stroke-miterlimit:2;">
    <g id="Gemini_Generated_Image_ool0tkool0tkool0.png" transform="matrix(2.357769,0,0,2.357769,-306.728463,117.327175)">
        <g transform="matrix(1,0,0,1,0,-0.42413)">
            <path d="M1022.999,219.5L1022.999,846.5C1022.909,846.974 1022.09,847.074 1021.999,847.548C1020.638,854.709 1023.223,873.461 1002.339,917.422C996.963,928.738 981.237,951.829 974.545,957.607C968.874,949.271 969.261,948.418 968.34,945.577C966.813,940.872 964.731,949.374 963.047,952.25C956.017,964.262 945.48,966.372 944.612,966.735C939.945,968.693 946.147,968.309 956.521,975.51C955.242,976.942 925.015,1005.848 877.407,1018.132C859.488,1022.755 848.611,1022.674 847.552,1022.983C847.084,1023.119 846.968,1023.863 846.5,1023.999L176.5,1023.999C176.041,1023.834 175.902,1023.152 175.443,1022.987C171.498,1021.565 148.681,1024.629 103.461,1001.573C72.459,985.766 16.185,939.678 3.209,865.553C0.165,848.165 1.388,848.032 1.001,846.551C0.879,846.083 0.122,845.968 0,845.5L0,219.5C0.127,219.033 0.884,218.925 1.011,218.457C1.147,217.956 -13.816,-36.11 33.339,-96.354C99.922,-181.417 926.887,-167.53 986.054,-85.349C1029.164,-25.471 1020.666,212.387 1021.995,218.455C1022.098,218.927 1022.896,219.028 1022.999,219.5ZM478.736,438.959C485.211,472.525 487.623,475.084 498.481,477.064C504.559,477.223 504.67,477.991 508.01,476.566C508.656,474.255 508.502,474.056 508.496,462.924C508.481,429.903 508.687,429.239 507.493,429.174C502.873,428.921 504.534,434.749 483.544,437.311C480.958,437.706 480.833,437.308 478.736,438.959ZM515.307,443.928L515.316,453.92C515.297,462.455 515.292,462.361 515.313,470.929C515.428,474.494 514.451,474.831 516.467,477.001C520.294,477.395 520.197,477.172 524.51,477.075C537.143,475.254 538.211,470.415 544.538,439.928C543.958,437.221 543.226,437.711 540.465,437.358C533.121,436.421 528.227,436.287 518.278,430.297C514.011,428.312 515.242,432.334 515.307,443.928ZM248.544,313.002C244.676,314.588 221.297,321.275 206.751,349.052C200.331,361.312 197.927,373.992 198.8,408.913C199.313,429.447 208.411,447.644 218.787,458.655C238.432,479.501 260.412,480.498 267.478,481.222L273.498,481.444L284.496,481.433L291.499,481.439C297.261,480.856 295.742,478.642 295.748,472.924C295.761,459.96 295.905,311.921 295.67,310.882C294.717,306.658 273.253,312.354 274.287,306.903C302.973,155.59 472.832,71.079 617.54,138.84C658.136,157.85 729.434,208.194 748.805,306.896C749.88,312.373 727.952,306.654 727.328,310.88C727.136,312.183 727.3,417.227 727.255,446.925C727.205,479.881 727.505,479.842 727.748,480.738C731.934,482.327 732,481.402 736.498,481.445L738.499,481.436L744.501,481.432L749.496,481.427L754.517,481.244C760.496,480.771 792.094,480.264 812.966,447.214C823.69,430.233 824.876,417.583 824.091,378.949C823.576,353.622 808.01,336.001 805.384,333.029C791.572,317.394 774.125,313.831 773.161,311.054C772.705,309.741 759.152,172.647 613.536,111.839C576.495,96.371 533.62,93.253 526.511,92.736C525.549,92.707 516.512,92.438 514.496,92.358L504.51,92.418L497.489,92.73C495.423,92.864 394.029,92.731 315.753,176.152C258.673,236.983 250.955,305.757 250.288,309.882C249.712,311.714 249.888,311.754 248.544,313.002ZM341.88,315.962C338.891,385.135 398.163,399.111 419.487,396.789C505.078,387.467 512.196,265.254 421.484,252.073C416.446,251.671 416.499,251.761 411.491,251.722C404.538,252.312 354.624,254.594 342.531,311.93L341.88,315.962ZM602.509,252.018C601.526,252.157 600.525,252.138 599.542,252.277C563.216,257.416 539.599,285.625 536.625,317.935C530.963,379.441 603.815,419.156 651.219,383.556C678.241,363.262 680.395,337.992 681.435,331.916C681.91,324.351 681.85,324.437 681.485,316.926C681.186,314.696 679.361,301.096 673.314,290.017C652.923,252.653 615.647,252.094 614.499,251.939C608.457,251.678 608.538,251.678 602.509,252.018Z"/>
        </g>
        <path d="M410.635,336.5C412.44,302.667 454.334,305.866 459.498,329.501C467.394,365.638 413.708,374.745 410.635,336.5Z"/>
        <path d="M564.372,335.496C568.427,301.532 609.037,305.979 613.462,331.507C619.231,364.785 566.51,375.715 564.372,335.496Z"/>
        <path d="M518.278,429.873C514.011,427.888 515.242,431.91 515.307,443.503C513.117,441.115 511.644,422.063 518.278,429.873Z"/>
        <path d="M515.316,453.496C515.297,462.031 515.292,461.937 515.313,470.505C512.223,467.365 514.452,453.392 514.454,453.391C514.672,453.2 515.098,453.686 515.316,453.496Z"/>
        <path d="M681.485,316.502C681.578,316.564 682.72,315.937 682.982,317.5C684.869,328.761 682.316,330.791 681.435,331.492C681.91,323.927 681.85,324.013 681.485,316.502Z"/>
        <path d="M602.509,251.594C602.523,251.572 601.919,250.232 603.5,250.023C612.323,248.855 613.936,250.827 614.499,251.515C608.457,251.254 608.538,251.254 602.509,251.594Z"/>
        <path d="M411.491,251.298C411.86,250.871 411.256,250.252 412.5,250.13C421.191,249.276 420.959,250.875 421.484,251.649C416.446,251.247 416.499,251.337 411.491,251.298Z"/>
        <path d="M498.481,476.64C504.559,476.799 504.67,477.567 508.01,476.142C505.233,479.391 504.687,478.521 500.5,478.074C498.236,477.832 498.806,477.062 498.481,476.64Z"/>
        <path d="M727.748,480.314C731.934,481.903 732,480.978 736.498,481.021C732.705,483.188 732.515,483.542 728.444,482.011C727.832,481.781 727.728,481.527 727.7,481.458C727.454,480.86 727.981,480.881 727.748,480.314Z"/>
        <path d="M250.288,309.458C249.712,311.29 249.888,311.33 248.544,312.578C247.568,311.099 246.767,311.238 247.426,309.561C248.46,306.933 249.895,309.158 250.288,309.458Z"/>
        <path d="M516.467,476.577C520.294,476.97 520.197,476.747 524.51,476.651C521.911,479.48 521.357,478.09 517.5,477.897C515.718,477.807 516.617,476.768 516.467,476.577Z"/>
        <path d="M540.465,436.934C544.081,435.085 546.642,436.021 544.538,439.504C543.958,436.797 543.226,437.287 540.465,436.934Z"/>
        <path d="M284.496,481.009C286.83,481.011 289.165,481.013 291.499,481.015C288.144,482.907 287.838,482.901 284.496,481.009Z"/>
        <path d="M267.478,480.798L273.498,481.02C273.114,481.244 272.883,481.678 272.499,481.901C271.536,482.463 268.818,482.152 268.5,482.116C266.771,481.918 267.655,481.025 267.478,480.798Z"/>
        <path d="M483.544,436.886C480.958,437.282 480.833,436.884 478.736,438.535C478.72,438.212 476.932,436.006 481.5,435.975C481.679,435.974 481.651,436.043 483.544,436.886Z"/>
        <path d="M738.499,481.012C740.499,481.01 742.5,481.009 744.501,481.007C741.639,482.628 741.417,482.641 738.499,481.012Z"/>
        <path d="M754.517,480.82C752.193,483.404 751.685,482.266 749.496,481.003L754.517,480.82Z"/>
        <path d="M744.501,481.007C746.166,481.006 747.831,481.005 749.496,481.003C747.095,482.38 746.906,482.371 744.501,481.007Z"/>
        <path d="M342.531,311.505L341.88,315.538C340.742,313.307 340.419,312.817 342.531,311.505Z"/>
    </g>
</svg>
